<?xml version="1.0" encoding="utf-8"?>
<!-- Generator: Adobe Illustrator 22.0.0, SVG Export Plug-In . SVG Version: 6.00 Build 0)  -->
<svg version="1.1" id="图层_1" xmlns="http://www.w3.org/2000/svg" xmlns:xlink="http://www.w3.org/1999/xlink" x="0px" y="0px"
	 viewBox="0 0 200 200" style="enable-background:new 0 0 200 200;" xml:space="preserve">
<style type="text/css">
	.st0{fill:#006AFF;stroke:#006AFF;stroke-width:5;stroke-miterlimit:10;}
</style>
<path class="st0" d="M99,193.4c-51.8,0-94-42.2-94-94s42.2-94,94-94s94,42.2,94,94S150.8,193.4,99,193.4z M99,19.1
	c-44.3,0-80.3,36-80.3,80.3s36,80.3,80.3,80.3s80.3-36,80.3-80.3S143.3,19.1,99,19.1z"/>
<path class="st0" d="M65.7,99.4c-13,0-23.5-10.5-23.5-23.5s10.5-23.5,23.5-23.5S89.2,63,89.2,75.9S78.6,99.4,65.7,99.4z M65.7,66.1
	c-5.4,0-9.8,4.4-9.8,9.8s4.4,9.8,9.8,9.8c5.4,0,9.8-4.4,9.8-9.8S71.1,66.1,65.7,66.1z"/>
<path class="st0" d="M49.4,171.9l-11.7-7.1l27.9-46.2c1.5-2.5,4.1-4.2,7-4.5c2.9-0.4,5.8,0.6,7.9,2.6l16.9,16.5L140,72.1
	c1.9-2.7,4.9-4.2,8.3-4.1c3.3,0.1,6.2,1.9,7.9,4.8l32.1,55.6l-11.9,6.8l-28.9-50l-41.7,59.9c-1.6,2.3-4.1,3.8-6.9,4.1
	c-2.8,0.3-5.6-0.7-7.6-2.7l-16.6-16.3L49.4,171.9z"/>
</svg>
