<svg id="icon" xmlns="http://www.w3.org/2000/svg" width="129" height="129" viewBox="0 0 129 129">
  <metadata><?xpacket begin="﻿" id="W5M0MpCehiHzreSzNTczkc9d"?>
<x:xmpmeta xmlns:x="adobe:ns:meta/" x:xmptk="Adobe XMP Core 5.6-c142 79.160924, 2017/07/13-01:06:39        ">
   <rdf:RDF xmlns:rdf="http://www.w3.org/1999/02/22-rdf-syntax-ns#">
      <rdf:Description rdf:about=""/>
   </rdf:RDF>
</x:xmpmeta>
                                                                                                    
                                                                                                    
                                                                                                    
                                                                                                    
                                                                                                    
                                                                                                    
                                                                                                    
                                                                                                    
                                                                                                    
                                                                                                    
                                                                                                    
                                                                                                    
                                                                                                    
                                                                                                    
                                                                                                    
                                                                                                    
                                                                                                    
                                                                                                    
                                                                                                    
                                                                                                    
                           
<?xpacket end="w"?></metadata>
<defs>
    <style>
      .cls-1 {
        fill: #fff;
      }

      .cls-2 {
        fill: #ffddb0;
      }

      .cls-2, .cls-3, .cls-4, .cls-5, .cls-6, .cls-7, .cls-8, .cls-9 {
        fill-rule: evenodd;
      }

      .cls-3 {
        fill: #ffb95a;
      }

      .cls-4 {
        fill: #ff9b16;
      }

      .cls-5 {
        fill: #f88d00;
      }

      .cls-6 {
        fill: #ff9a14;
      }

      .cls-7 {
        fill: #ffa631;
      }

      .cls-8 {
        fill: #ffbc62;
      }

      .cls-9 {
        fill: #ffce8c;
      }
    </style>
  </defs>
  <circle id="椭圆_1" data-name="椭圆 1" class="cls-1" cx="64.5" cy="64.5" r="64.5"/>
  <path id="椭圆_1_拷贝" data-name="椭圆 1 拷贝" class="cls-2" d="M71.8,71.787a39.877,39.877,0,0,1,41.356-41.363A39.877,39.877,0,0,1,71.8,71.787Z" transform="translate(-8 -8)"/>
  <path id="椭圆_1_拷贝_2" data-name="椭圆 1 拷贝 2" class="cls-3" d="M71.51,71.921a39.869,39.869,0,0,1,58.486,0A39.869,39.869,0,0,1,71.51,71.921Z" transform="translate(-8 -8)"/>
  <path id="椭圆_1_拷贝_3" data-name="椭圆 1 拷贝 3" class="cls-4" d="M71.208,71.809a39.877,39.877,0,0,1,41.356,41.364A39.877,39.877,0,0,1,71.208,71.809Z" transform="translate(-8 -8)"/>
  <path id="椭圆_1_拷贝_4" data-name="椭圆 1 拷贝 4" class="cls-5" d="M71.074,71.515a39.886,39.886,0,0,1,0,58.5A39.886,39.886,0,0,1,71.074,71.515Z" transform="translate(-8 -8)"/>
  <path id="椭圆_1_拷贝_5" data-name="椭圆 1 拷贝 5" class="cls-6" d="M71.186,71.213A39.877,39.877,0,0,1,29.83,112.576,39.877,39.877,0,0,1,71.186,71.213Z" transform="translate(-8 -8)"/>
  <path id="椭圆_1_拷贝_6" data-name="椭圆 1 拷贝 6" class="cls-7" d="M71.479,71.079a39.869,39.869,0,0,1-58.486,0A39.869,39.869,0,0,1,71.479,71.079Z" transform="translate(-8 -8)"/>
  <path id="椭圆_1_拷贝_7" data-name="椭圆 1 拷贝 7" class="cls-8" d="M71.782,71.192A39.877,39.877,0,0,1,30.426,29.828,39.877,39.877,0,0,1,71.782,71.192Z" transform="translate(-8 -8)"/>
  <path id="椭圆_1_拷贝_8" data-name="椭圆 1 拷贝 8" class="cls-9" d="M71.916,71.485a39.886,39.886,0,0,1,0-58.5A39.886,39.886,0,0,1,71.916,71.485Z" transform="translate(-8 -8)"/>
</svg>
