<svg id="组_1" data-name="组 1" xmlns="http://www.w3.org/2000/svg" width="130" height="130" viewBox="0 0 130 130">
  <metadata><?xpacket begin="﻿" id="W5M0MpCehiHzreSzNTczkc9d"?>
<x:xmpmeta xmlns:x="adobe:ns:meta/" x:xmptk="Adobe XMP Core 5.6-c142 79.160924, 2017/07/13-01:06:39        ">
   <rdf:RDF xmlns:rdf="http://www.w3.org/1999/02/22-rdf-syntax-ns#">
      <rdf:Description rdf:about=""/>
   </rdf:RDF>
</x:xmpmeta>
                                                                                                    
                                                                                                    
                                                                                                    
                                                                                                    
                                                                                                    
                                                                                                    
                                                                                                    
                                                                                                    
                                                                                                    
                                                                                                    
                                                                                                    
                                                                                                    
                                                                                                    
                                                                                                    
                                                                                                    
                                                                                                    
                                                                                                    
                                                                                                    
                                                                                                    
                                                                                                    
                           
<?xpacket end="w"?></metadata>
<defs>
    <style>
      .cls-1 {
        fill: #75a2ff;
      }

      .cls-2 {
        fill: #fff;
        fill-rule: evenodd;
      }
    </style>
  </defs>
  <circle id="椭圆_2" data-name="椭圆 2" class="cls-1" cx="65" cy="65" r="65"/>
  <path id="椭圆_3" data-name="椭圆 3" class="cls-2" d="M111.012,67.116v9.747H104.7a33.352,33.352,0,0,1-2.008,7.207l5.538,3.2-4.875,8.441-5.595-3.229A33.854,33.854,0,0,1,92.5,97.73l3.231,5.594L87.29,108.2l-3.2-5.544a33.51,33.51,0,0,1-7.2,2.008v6.325h-9.75v-6.176a33.385,33.385,0,0,1-7.391-1.832L56.727,108.2l-8.444-4.873L51.2,98.272a33.846,33.846,0,0,1-5.624-5.394l-4.917,2.838-4.875-8.441,4.732-2.731a33.449,33.449,0,0,1-2.206-7.672H33V67.125h5.169a33.391,33.391,0,0,1,2.02-7.862l-4.4-2.541,4.875-8.441,4.356,2.514a33.823,33.823,0,0,1,5.78-5.769l-2.519-4.362,8.444-4.873,2.54,4.4a33.552,33.552,0,0,1,7.866-2.021V33h9.75v5.306a33.41,33.41,0,0,1,7.683,2.2l2.724-4.717,8.444,4.873-2.828,4.9a33.812,33.812,0,0,1,5.4,5.633l5.053-2.916,4.875,8.441L103,59.727a33.62,33.62,0,0,1,1.839,7.389h6.173ZM72,57.81A14.177,14.177,0,1,1,57.818,71.987,14.179,14.179,0,0,1,72,57.81Z" transform="translate(-7 -7)"/>
</svg>
